<?xml version="1.0" standalone="no"?>
<!DOCTYPE svg PUBLIC "-//W3C//DTD SVG 20010904//EN"
 "http://www.w3.org/TR/2001/REC-SVG-20010904/DTD/svg10.dtd">
<svg version="1.0" xmlns="http://www.w3.org/2000/svg"
 width="700.000000pt" height="700.000000pt" viewBox="0 0 700.000000 700.000000"
 preserveAspectRatio="xMidYMid meet">
<metadata>
Created by potrace 1.11, written by Peter Selinger 2001-2013
</metadata>
<g transform="translate(0.000000,700.000000) scale(0.100000,-0.100000)"
fill="#000000" stroke="none">
<path d="M4368 5926 c-1 -2 -77 -7 -167 -10 -90 -4 -167 -8 -170 -10 -3 -2
-35 -7 -71 -10 -36 -4 -85 -12 -110 -17 -25 -6 -56 -13 -70 -15 -58 -11 -210
-68 -267 -100 -154 -86 -258 -237 -291 -424 -13 -74 -5 -388 13 -480 2 -9 6
-49 10 -89 3 -40 8 -80 10 -89 1 -9 6 -51 9 -92 4 -41 9 -89 11 -105 26 -208
27 -306 4 -373 -51 -149 -170 -229 -412 -277 -30 -6 -180 -18 -220 -18 l-37 1
2 -317 3 -316 105 -7 c350 -21 525 -119 569 -318 9 -40 7 -185 -3 -235 -2 -11
-7 -54 -10 -95 -12 -127 -24 -244 -31 -290 -2 -14 -6 -59 -10 -100 -4 -41 -9
-88 -11 -105 -14 -89 -13 -305 0 -376 33 -168 103 -289 216 -373 179 -133 451
-197 877 -208 40 -1 75 1 79 5 7 7 10 525 3 532 -3 2 -38 6 -79 9 -232 17
-339 72 -371 188 -9 37 -5 229 6 248 1 3 6 45 10 94 4 49 8 96 10 106 2 9 6
50 10 91 3 41 8 88 10 104 2 17 6 57 9 90 3 33 9 89 12 125 34 314 -40 517
-236 650 -69 47 -208 110 -272 125 -13 2 -59 14 -103 24 -44 11 -92 20 -107
21 -27 0 -41 16 -15 17 62 4 211 43 304 81 157 63 287 161 346 263 59 100 79
182 83 334 2 77 -1 178 -6 225 -17 152 -18 164 -25 235 -3 39 -8 81 -10 95 -2
14 -7 58 -10 99 -4 41 -8 88 -11 105 -2 17 -6 77 -9 134 -4 89 -2 108 16 146
36 78 90 109 240 140 14 3 64 8 110 12 46 4 86 8 88 10 3 2 5 463 2 515 -1 15
-24 32 -33 25z"/>
</g>
</svg>
